<?xml version="1.0" encoding="utf-8"?>
<!-- Generator: Adobe Illustrator 16.0.0, SVG Export Plug-In . SVG Version: 6.00 Build 0)  -->
<!DOCTYPE svg PUBLIC "-//W3C//DTD SVG 1.1//EN" "http://www.w3.org/Graphics/SVG/1.1/DTD/svg11.dtd">
<svg version="1.1" id="Layer_1" xmlns="http://www.w3.org/2000/svg" xmlns:xlink="http://www.w3.org/1999/xlink" x="0px" y="0px"
	 width="128px" height="128px" viewBox="0 0 128 128" enable-background="new 0 0 128 128" xml:space="preserve">
<path fill="none" stroke="#000000" stroke-width="6" stroke-miterlimit="10" d="M59.893,92.305"/>
<rect x="60.262" y="12.167" fill="#FFFFFF" width="8.393" height="106"/>
<path fill="none" stroke="#000000" stroke-width="6" stroke-miterlimit="10" d="M59.893,92.305"/>
<rect x="6.167" y="18.336" fill="#FFFFFF" width="57.865" height="98.658"/>
<rect x="64.032" y="18.336" fill="#FFFFFF" width="58.135" height="98.657"/>
<path fill="#FFFFFF" stroke="#000000" stroke-width="6" stroke-miterlimit="10" d="M63.049,113.779c0,0-13.521-2.451-16.889-2.603
	c-3.366-0.151-14.629-0.709-17.961-0.438c-3.333,0.271-14.208,1.158-14.208,1.158V13.201c0,0,12.339-1.708,15.95-1.716
	c4.558-0.01,10.326,0.294,16.22,0.703c5.846,0.405,5.799,0.895,16.889,2.605"/>
<path fill="#FFFFFF" stroke="#000000" stroke-width="6" stroke-miterlimit="10" d="M65.312,113.779c0,0,13.521-2.451,16.888-2.603
	s14.629-0.709,17.962-0.438c3.331,0.271,14.208,1.158,14.208,1.158V13.201c0,0-12.341-1.708-15.951-1.716
	c-4.559-0.01-10.324,0.294-16.219,0.703c-5.847,0.405-5.8,0.895-16.888,2.605"/>
<rect x="61.869" y="11.485" width="4.393" height="105.349"/>
</svg>
