<?xml version="1.0" encoding="utf-8"?>
<!-- Generator: Adobe Illustrator 16.0.0, SVG Export Plug-In . SVG Version: 6.00 Build 0)  -->
<!DOCTYPE svg PUBLIC "-//W3C//DTD SVG 1.1//EN" "http://www.w3.org/Graphics/SVG/1.1/DTD/svg11.dtd">
<svg version="1.1" id="Layer_1" xmlns="http://www.w3.org/2000/svg" xmlns:xlink="http://www.w3.org/1999/xlink" x="0px" y="0px"
	 width="128px" height="128px" viewBox="0 0 128 128" enable-background="new 0 0 128 128" xml:space="preserve">
<path stroke="#FFFFFF" stroke-width="6" stroke-miterlimit="10" d="M35.585,37.213c0-16.402,12.626-29.698,28.201-29.698
	s28.201,13.296,28.201,29.698c0,16.401-12.626,29.697-28.201,29.697c-8.753,0-16.575-4.199-21.748-10.79
	C38.007,50.984,35.585,44.396,35.585,37.213z"/>
<path stroke="#FFFFFF" stroke-width="6" stroke-miterlimit="10" d="M34.68,75.32c-5.587,7.854-8.035,15.702-5.466,17.529
	c2.568,1.828,9.181-3.058,14.769-10.912c5.588-7.854,8.036-15.704,5.467-17.529C46.881,62.578,40.268,67.466,34.68,75.32z"/>
<ellipse transform="matrix(0.8148 -0.5798 0.5798 0.8148 -27.5066 66.8114)" stroke="#FFFFFF" stroke-width="6" stroke-miterlimit="10" cx="90.808" cy="76.454" rx="5.708" ry="17.453"/>
<ellipse stroke="#FFFFFF" stroke-width="6" stroke-miterlimit="10" cx="63.786" cy="91.059" rx="20.585" ry="23.88"/>
<ellipse transform="matrix(-0.7751 -0.6318 0.6318 -0.7751 7.5155 234.4609)" stroke="#FFFFFF" stroke-width="6" stroke-miterlimit="10" cx="45.481" cy="115.893" rx="4.511" ry="7.112"/>
<ellipse transform="matrix(0.7751 -0.6319 0.6319 0.7751 -54.7399 78.0066)" stroke="#FFFFFF" stroke-width="6" stroke-miterlimit="10" cx="82.201" cy="115.893" rx="4.511" ry="7.113"/>
<circle stroke="#FFFFFF" stroke-width="6" stroke-miterlimit="10" cx="56.252" cy="31.308" r="2.779"/>
<circle stroke="#FFFFFF" stroke-width="6" stroke-miterlimit="10" cx="73.73" cy="31.308" r="2.779"/>
</svg>
