<?xml version="1.0" encoding="utf-8"?>
<!-- Generator: Adobe Illustrator 16.0.0, SVG Export Plug-In . SVG Version: 6.00 Build 0)  -->
<!DOCTYPE svg PUBLIC "-//W3C//DTD SVG 1.1//EN" "http://www.w3.org/Graphics/SVG/1.1/DTD/svg11.dtd">
<svg version="1.1" id="Layer_1" xmlns="http://www.w3.org/2000/svg" xmlns:xlink="http://www.w3.org/1999/xlink" x="0px" y="0px"
	 width="128px" height="128px" viewBox="0 0 128 128" enable-background="new 0 0 128 128" xml:space="preserve">
<path fill="#FFFFFF" stroke="#FFFFFF" stroke-width="5" stroke-miterlimit="10" d="M58.097,15.064c0-2.81,2.644-5.089,5.903-5.089
	l0,0c3.262,0,5.903,2.279,5.903,5.089v18.765c0,2.811-2.642,5.09-5.903,5.09l0,0c-3.259,0-5.903-2.278-5.903-5.09V15.064z"/>
<circle stroke="#FFFFFF" stroke-width="6" stroke-miterlimit="10" cx="64" cy="78.731" r="46.448"/>
<path fill="#FFFFFF" stroke="#FFFFFF" stroke-width="5" stroke-miterlimit="10" d="M76.834,23.354c0,2.429-0.658,4.396-1.467,4.396
	H52.631c-0.808,0-1.464-1.967-1.464-4.396l0,0c0-2.424,0.656-4.392,1.464-4.392h22.736C76.176,18.962,76.834,20.93,76.834,23.354
	L76.834,23.354z"/>
<line fill="none" stroke="#FFFFFF" stroke-width="5" stroke-miterlimit="10" x1="64" y1="78.731" x2="83.098" y2="58.93"/>
<line fill="none" stroke="#FFFFFF" stroke-width="5" stroke-miterlimit="10" x1="64" y1="77.209" x2="64" y2="104.22"/>
<circle fill="#FFFFFF" stroke="#FFFFFF" stroke-width="5" stroke-miterlimit="10" cx="64" cy="78.731" r="5.782"/>
</svg>
