<?xml version="1.0" encoding="utf-8"?>
<!-- Generator: Adobe Illustrator 16.0.0, SVG Export Plug-In . SVG Version: 6.00 Build 0)  -->
<!DOCTYPE svg PUBLIC "-//W3C//DTD SVG 1.1//EN" "http://www.w3.org/Graphics/SVG/1.1/DTD/svg11.dtd">
<svg version="1.1" id="Layer_1" xmlns="http://www.w3.org/2000/svg" xmlns:xlink="http://www.w3.org/1999/xlink" x="0px" y="0px"
	 width="128px" height="128px" viewBox="0 0 128 128" enable-background="new 0 0 128 128" xml:space="preserve">
<g>
	<path fill="none" stroke="#FFFFFF" stroke-width="6" stroke-miterlimit="10" d="M44.473,52.718
		c-22.411,1.622-38.45,5.953-38.45,11.044c0,5.07,15.908,9.39,38.178,11.026c-1.752-3.207-2.75-6.888-2.75-10.8
		C41.451,59.882,42.554,56.035,44.473,52.718z"/>
	<path fill="none" stroke="#FFFFFF" stroke-width="6" stroke-miterlimit="10" d="M121.979,63.762
		c0-5.091-16.039-9.423-38.451-11.044c1.918,3.317,3.022,7.164,3.022,11.271c0,3.913-0.998,7.593-2.75,10.8
		C106.068,73.15,121.979,68.832,121.979,63.762z"/>
	<path fill="none" stroke="#FFFFFF" stroke-width="6" stroke-miterlimit="10" d="M52.982,83.663
		c1.642,22.218,5.956,38.076,11.019,38.076c5.063,0,9.375-15.858,11.019-38.076C71.759,85.492,68.003,86.54,64,86.54
		S56.241,85.492,52.982,83.663z"/>
	<path fill="none" stroke="#FFFFFF" stroke-width="6" stroke-miterlimit="10" d="M75.051,44.333C73.436,21.871,69.1,5.785,64,5.785
		c-5.099,0-9.435,16.086-11.051,38.548c3.267-1.841,7.035-2.896,11.051-2.896C68.016,41.437,71.784,42.492,75.051,44.333z"/>
</g>
<path fill="none" stroke="#FFFFFF" stroke-width="6" stroke-miterlimit="10" d="M116.473,63.957
	c0,28.98-23.492,52.475-52.473,52.475c-28.98,0-52.473-23.494-52.473-52.475c0-28.979,23.493-52.471,52.473-52.471
	C92.98,11.486,116.473,34.98,116.473,63.957z"/>
<circle fill="none" stroke="#FFFFFF" stroke-width="6" stroke-miterlimit="10" cx="64" cy="63.753" r="21.75"/>
<circle fill="#FFFFFF" cx="64.001" cy="64" r="12.501"/>
</svg>
