<?xml version="1.0" encoding="utf-8"?>
<!-- Generator: Adobe Illustrator 16.0.0, SVG Export Plug-In . SVG Version: 6.00 Build 0)  -->
<!DOCTYPE svg PUBLIC "-//W3C//DTD SVG 1.1//EN" "http://www.w3.org/Graphics/SVG/1.1/DTD/svg11.dtd">
<svg version="1.1" id="Layer_1" xmlns="http://www.w3.org/2000/svg" xmlns:xlink="http://www.w3.org/1999/xlink" x="0px" y="0px"
	 width="144.373px" height="97.921px" viewBox="0 0 144.373 97.921" enable-background="new 0 0 144.373 97.921"
	 xml:space="preserve">
<polyline fill="none" stroke="#000000" stroke-miterlimit="10" points="3.483,76.237 16.802,39.593 41.1,39.593 "/>
<path fill="none" stroke="#000000" stroke-miterlimit="10" d="M4.17,77.794"/>
<polyline fill="none" stroke="#000000" stroke-miterlimit="10" points="109.97,39.593 127.272,39.593 140.921,76.237 "/>
<path fill="none" stroke="#000000" stroke-miterlimit="10" d="M119.21,13.733"/>
<path fill="none" stroke="#000000" stroke-miterlimit="10" d="M79.196,20.98"/>
<rect x="3.483" y="76.237" fill="none" stroke="#000000" stroke-miterlimit="10" width="137.405" height="19.168"/>
<polyline fill="none" stroke="#000000" stroke-miterlimit="10" points="14.246,76.237 25.202,46.036 41.5,46.036 "/>
<path fill="none" stroke="#000000" stroke-miterlimit="10" d="M11.384,76.237"/>
<polyline fill="none" stroke="#000000" stroke-miterlimit="10" points="110.2,46.036 118.714,46.036 129.566,76.237 "/>
<g>
	<path fill="none" stroke="#000000" stroke-miterlimit="10" d="M66.439,12.877c8.321,0.71,16.234,3.121,16.234,5.746
		c0,3.198-9.011,5.79-20.127,5.79c-11.115,0-20.126-2.592-20.126-5.79c0-2.642,6.75-4.998,15.154-5.693"/>
	<path fill="none" stroke="#000000" stroke-miterlimit="10" d="M69.942,63.476c-1.57,0.114-5.538,0.356-7.395,0.356
		c-14.616,0-20.127-4.087-20.127-5.53c0-0.51-0.92-2.898-0.92-9.266c0-11.692,0.92-30.413,0.92-30.413"/>
	<path fill="none" stroke="#000000" stroke-miterlimit="10" d="M82.673,18.624c0,0-0.028,4.25-0.051,11.467"/>
</g>
<g>
	<path fill="none" stroke="#000000" stroke-miterlimit="10" d="M94.251,30.274c8.604,0.519,15.944,2.415,15.944,4.529
		c0,2.52-9.011,4.562-20.126,4.562c-11.116,0-20.127-2.042-20.127-4.562c0-2.092,7.489-3.992,15.963-4.529"/>
	<path fill="none" stroke="#000000" stroke-miterlimit="10" d="M84.63,30.409"/>
	<path fill="none" stroke="#000000" stroke-miterlimit="10" d="M110.196,34.803c0,0-0.528,11.95,0.004,19.264
		c0.573,7.874-0.099,11.405-0.004,11.998c0.181,1.138-5.271,4.358-20.125,4.358c-14.617,0-20.128-3.22-20.128-4.358
		c0-0.45-0.49-5.264,0-11.28c0.727-8.945,0-19.982,0-19.982"/>
</g>
<path fill="none" stroke="#000000" stroke-miterlimit="10" d="M61.442,17.497c0,0-4.199,0-4.199-4.63
	c0-1.516,0.917-1.596,1.767-6.469c0.55-3.159,0.647-6.986,4.313,0.252c1.89,3.733,3.452,4.484,3.055,7.287
	C65.978,16.757,63.302,17.497,61.442,17.497"/>
<line fill="none" stroke="#000000" stroke-width="2" stroke-miterlimit="10" x1="61.841" y1="17.497" x2="61.841" y2="20.418"/>
<path fill="none" stroke="#000000" stroke-miterlimit="10" d="M90.366,33.859c0,0,2.941-0.457,4.184-3.61
	c0.8-2.029-0.09-2.287-1.232-6.202c-0.973-3.331-2.044-7.834-2.952-3.879c-1.011,4.409-4.445,7.077-4.247,10.03
	C86.219,31.696,86.854,33.859,90.366,33.859"/>
<line fill="none" stroke="#000000" stroke-width="2" stroke-miterlimit="10" x1="89.973" y1="33.472" x2="89.973" y2="35.367"/>
</svg>
