<?xml version="1.0" encoding="utf-8"?>
<!-- Generator: Adobe Illustrator 16.0.0, SVG Export Plug-In . SVG Version: 6.00 Build 0)  -->
<!DOCTYPE svg PUBLIC "-//W3C//DTD SVG 1.1//EN" "http://www.w3.org/Graphics/SVG/1.1/DTD/svg11.dtd">
<svg version="1.1" id="Layer_1" xmlns="http://www.w3.org/2000/svg" xmlns:xlink="http://www.w3.org/1999/xlink" x="0px" y="0px"
	 width="128px" height="128px" viewBox="0 0 128 128" enable-background="new 0 0 128 128" xml:space="preserve">
<g>
	<path fill="#010101" d="M114.731,18.001c-6.336-6.875-14.725-10.633-23.679-10.633c-8.953,0-17.368,3.785-23.704,10.661
		l-3.309,3.59l-3.36-3.646c-6.337-6.875-14.777-10.688-23.73-10.688c-8.928,0-17.342,3.785-23.652,10.633
		c-6.337,6.875-9.826,16.004-9.8,25.719c0,9.714,3.514,18.816,9.851,25.691l48.178,52.273c0.667,0.724,1.564,1.113,2.437,1.113
		c0.873,0,1.771-0.361,2.437-1.085l48.279-52.19c6.338-6.875,9.826-16.005,9.826-25.719
		C124.531,34.006,121.068,24.876,114.731,18.001z"/>
</g>
<path fill="none" stroke="#FFFFFF" stroke-width="5" stroke-miterlimit="10" d="M53.782,49.747c0-6.68,4.637-12.095,10.356-12.095
	s10.357,5.415,10.357,12.095c0,6.68-7.688,12.096-10.357,12.096C61.39,61.843,53.782,56.427,53.782,49.747z"/>
<line fill="none" stroke="#FFFFFF" stroke-width="5" stroke-miterlimit="10" x1="64.137" y1="60.417" x2="64.137" y2="103.098"/>
<line fill="none" stroke="#FFFFFF" stroke-width="5" stroke-miterlimit="10" x1="45.214" y1="64.27" x2="83.063" y2="64.27"/>
</svg>
