<?xml version="1.0" encoding="utf-8"?>
<!-- Generator: Adobe Illustrator 16.0.0, SVG Export Plug-In . SVG Version: 6.00 Build 0)  -->
<!DOCTYPE svg PUBLIC "-//W3C//DTD SVG 1.1//EN" "http://www.w3.org/Graphics/SVG/1.1/DTD/svg11.dtd">
<svg version="1.1" id="Layer_1" xmlns="http://www.w3.org/2000/svg" xmlns:xlink="http://www.w3.org/1999/xlink" x="0px" y="0px"
	 width="128px" height="128px" viewBox="0 0 128 128" enable-background="new 0 0 128 128" xml:space="preserve">
<polygon display="none" fill="none" stroke="#000000" stroke-width="6" stroke-miterlimit="10" points="32,-56 393,-317 255,106 
	116,-317 479,-56 "/>
<polygon fill="none" stroke="#FFFFFF" stroke-width="6" stroke-miterlimit="10" points="77.75,40.002 64,53.748 50.251,40.002 
	64,26.25 "/>
<rect x="77.91" y="54.392" transform="matrix(-0.707 0.7072 -0.7072 -0.707 194.9297 47.4662)" fill="none" stroke="#FFFFFF" stroke-width="6" stroke-miterlimit="10" width="19.443" height="19.446"/>
<rect x="30.643" y="54.4" transform="matrix(-0.7071 0.7071 -0.7071 -0.7071 114.2493 80.9215)" fill="none" stroke="#FFFFFF" stroke-width="6" stroke-miterlimit="10" width="19.445" height="19.445"/>
<polygon fill="none" stroke="#FFFFFF" stroke-width="6" stroke-miterlimit="10" points="77.75,87.268 64,101.014 50.251,87.268 
	64,73.521 "/>
<path fill="none" stroke="#FFFFFF" stroke-width="6" stroke-miterlimit="10" d="M116.473,63.998
	c0,28.98-23.492,52.475-52.473,52.475c-28.98,0-52.473-23.494-52.473-52.475c0-28.979,23.493-52.471,52.473-52.471
	C92.98,11.527,116.473,35.021,116.473,63.998z"/>
</svg>
