<?xml version="1.0" encoding="utf-8"?>
<!-- Generator: Adobe Illustrator 16.0.0, SVG Export Plug-In . SVG Version: 6.00 Build 0)  -->
<!DOCTYPE svg PUBLIC "-//W3C//DTD SVG 1.1//EN" "http://www.w3.org/Graphics/SVG/1.1/DTD/svg11.dtd">
<svg version="1.1" id="Layer_1" xmlns="http://www.w3.org/2000/svg" xmlns:xlink="http://www.w3.org/1999/xlink" x="0px" y="0px"
	 width="128px" height="128px" viewBox="0 0 128 128" enable-background="new 0 0 128 128" xml:space="preserve">
<polygon display="none" fill="none" stroke="#000000" stroke-width="6" stroke-miterlimit="10" points="32,-56 393,-317 255,106 
	116,-317 479,-56 "/>
<path fill="none" stroke="#FFFFFF" stroke-width="6" stroke-miterlimit="10" d="M116.473,63.998
	c0,28.98-23.492,52.475-52.473,52.475c-28.98,0-52.473-23.494-52.473-52.475c0-28.979,23.493-52.471,52.473-52.471
	C92.98,11.527,116.473,35.021,116.473,63.998z"/>
<line fill="none" stroke="#FFFFFF" stroke-width="6" stroke-miterlimit="10" x1="64" y1="85.712" x2="64" y2="34"/>
<path fill="none" stroke="#FFFFFF" stroke-width="6" stroke-miterlimit="10" d="M72.562,104.919
	c4.677-4.729,4.635-12.353-0.094-17.028c-4.729-4.677-12.354-4.636-17.031,0.094c-4.675,4.729-4.633,12.354,0.097,17.029"/>
<line fill="none" stroke="#FFFFFF" stroke-width="6" stroke-miterlimit="10" x1="75" y1="68.712" x2="53" y2="68.712"/>
<line fill="none" stroke="#FFFFFF" stroke-width="6" stroke-miterlimit="10" x1="75" y1="58.962" x2="53" y2="58.962"/>
<polyline fill="none" stroke="#FFFFFF" stroke-width="6" stroke-miterlimit="10" points="85.281,25.691 73.406,42.438 63.969,33.98 
	54.844,42.157 42.719,25.188 "/>
</svg>
