<?xml version="1.0" encoding="utf-8"?>
<!-- Generator: Adobe Illustrator 16.0.0, SVG Export Plug-In . SVG Version: 6.00 Build 0)  -->
<!DOCTYPE svg PUBLIC "-//W3C//DTD SVG 1.1//EN" "http://www.w3.org/Graphics/SVG/1.1/DTD/svg11.dtd">
<svg version="1.1" id="Layer_1" xmlns="http://www.w3.org/2000/svg" xmlns:xlink="http://www.w3.org/1999/xlink" x="0px" y="0px"
	 width="512px" height="512px" viewBox="0 0 512 512" enable-background="new 0 0 512 512" xml:space="preserve">
<ellipse fill="none" stroke="#ffffff" stroke-width="6" stroke-miterlimit="10" cx="256" cy="270.078" rx="197.231" ry="41.535"/>
<ellipse fill="none" stroke="#ffffff" stroke-width="6" stroke-miterlimit="10" cx="256" cy="242.386" rx="197.231" ry="41.537"/>
<ellipse transform="matrix(0.7081 0.7061 -0.7061 0.7081 259.1301 -96.4443)" fill="none" stroke="#ffffff" stroke-width="6" stroke-miterlimit="10" cx="246.224" cy="265.222" rx="197.231" ry="41.536"/>
<path fill="none" stroke="#ffffff" stroke-width="6" stroke-miterlimit="10" d="M405.441,384.871
	c-16.195,16.244-91.858-32.933-168.994-109.847c-77.135-76.909-126.535-152.427-110.338-168.672
	c16.197-16.244,91.859,32.936,168.995,109.846C372.239,293.111,421.642,368.627,405.441,384.871z"/>
<path fill="none" stroke="#ffffff" stroke-width="6" stroke-miterlimit="10" d="M107.289,386.122
	c-16.245-16.198,32.934-91.858,109.846-168.994c76.909-77.136,152.427-126.536,168.671-110.339
	c16.245,16.196-32.932,91.858-109.845,168.993C199.05,352.921,123.533,402.32,107.289,386.122z"/>
<ellipse transform="matrix(-0.7061 0.7081 -0.7081 -0.7061 642.4526 265.3514)" fill="none" stroke="#ffffff" stroke-width="6" stroke-miterlimit="10" cx="266.156" cy="266.007" rx="197.231" ry="41.537"/>
<circle fill="#FFFFFF" stroke="#ffffff" stroke-width="6" stroke-miterlimit="10" cx="256.001" cy="255.417" r="77.589"/>
<circle stroke="#ffffff" stroke-width="6" stroke-miterlimit="10" cx="256" cy="255.417" r="19.257"/>
<circle fill="none" stroke="#ffffff" stroke-width="6" stroke-miterlimit="10" cx="256" cy="255.464" r="242.166"/>
<circle fill="none" stroke="#ffffff" stroke-width="6" stroke-miterlimit="10" cx="256" cy="255.3" r="169.549"/>
</svg>
