<?xml version="1.0" encoding="utf-8"?>
<!-- Generator: Adobe Illustrator 16.0.0, SVG Export Plug-In . SVG Version: 6.00 Build 0)  -->
<!DOCTYPE svg PUBLIC "-//W3C//DTD SVG 1.1//EN" "http://www.w3.org/Graphics/SVG/1.1/DTD/svg11.dtd">
<svg version="1.1" id="Layer_1" xmlns="http://www.w3.org/2000/svg" xmlns:xlink="http://www.w3.org/1999/xlink" x="0px" y="0px"
	 width="512px" height="512px" viewBox="0 0 512 512" enable-background="new 0 0 512 512" xml:space="preserve">
<circle fill="#FFFFFF" stroke="#ffffff" stroke-width="6" stroke-miterlimit="10" cx="256.001" cy="255.417" r="77.094"/>
<circle stroke="#ffffff" stroke-width="6" stroke-miterlimit="10" cx="256" cy="255.417" r="19.257"/>
<circle fill="none" stroke="#ffffff" stroke-width="6" stroke-miterlimit="10" cx="256" cy="255.464" r="242.166"/>
<g>
	<path fill="#FFFFFF" stroke="#ffffff" stroke-width="6" stroke-miterlimit="10" d="M441.992,256.232
		c-4.391,2.616-9.985,5.111-16.651,7.456c-0.483,9.922-1.824,19.618-3.941,29.021c20.128-6.511,31.832-14.282,31.832-22.63
		C453.231,265.223,449.262,260.563,441.992,256.232z"/>
	<path fill="#FFFFFF" stroke="#ffffff" stroke-width="6" stroke-miterlimit="10" d="M70.008,256.232
		c-7.27,4.331-11.239,8.991-11.239,13.846c0,8.348,11.704,16.119,31.832,22.63c-2.118-9.402-3.458-19.099-3.942-29.021
		C79.993,261.343,74.398,258.848,70.008,256.232z"/>
	<path fill="#FFFFFF" stroke="#ffffff" stroke-width="6" stroke-miterlimit="10" d="M441.992,256.232
		c7.27-4.331,11.239-8.991,11.239-13.846c0-8.289-11.533-16.009-31.396-22.492c1.992,9.373,3.205,19.032,3.578,28.907
		C432.047,251.139,437.618,253.626,441.992,256.232z"/>
	<path fill="#FFFFFF" stroke="#ffffff" stroke-width="6" stroke-miterlimit="10" d="M90.165,219.895
		c-19.863,6.482-31.396,14.203-31.396,22.492c0,4.855,3.969,9.515,11.239,13.846c4.374-2.606,9.945-5.093,16.579-7.431
		C86.959,238.926,88.173,229.268,90.165,219.895z"/>
	<path fill="#FFFFFF" stroke="#ffffff" stroke-width="6" stroke-miterlimit="10" d="M124.292,124.093
		c-8.206-2.065-14.306-1.569-17.734,1.869c-5.867,5.884-3.121,19.55,6.426,38.238c5.261-8.242,11.215-15.998,17.779-23.187
		C127.728,134.693,125.546,129.015,124.292,124.093z"/>
	<path fill="#FFFFFF" stroke="#ffffff" stroke-width="6" stroke-miterlimit="10" d="M347.471,398.081
		c18.799,9.561,32.536,12.301,38.42,6.4c3.429-3.438,3.908-9.541,1.817-17.741c-4.968-1.25-10.708-3.441-17.104-6.499
		C363.433,386.823,355.696,392.8,347.471,398.081z"/>
	<path fill="#FFFFFF" stroke="#ffffff" stroke-width="6" stroke-miterlimit="10" d="M387.708,386.74
		c8.206,2.066,14.306,1.568,17.733-1.869c5.882-5.897,3.109-19.613-6.491-38.366c-5.264,8.233-11.222,15.979-17.787,23.16
		C384.237,376.048,386.443,381.778,387.708,386.74z"/>
	<path fill="#FFFFFF" stroke="#ffffff" stroke-width="6" stroke-miterlimit="10" d="M164.331,112.649
		c-18.698-9.479-32.358-12.177-38.222-6.297c-3.428,3.438-3.907,9.541-1.817,17.74c4.925,1.24,10.609,3.405,16.938,6.421
		C148.39,123.925,156.115,117.94,164.331,112.649z"/>
	<path fill="#FFFFFF" stroke="#ffffff" stroke-width="6" stroke-miterlimit="10" d="M387.676,124.523
		c2.065-8.206,1.568-14.306-1.87-17.734c-5.828-5.811-19.285-3.178-37.698,6.149c8.181,5.304,15.872,11.294,22.999,17.889
		C377.286,127.879,382.846,125.754,387.676,124.523z"/>
	<path fill="#FFFFFF" stroke="#ffffff" stroke-width="6" stroke-miterlimit="10" d="M113.75,347.578
		c-9.61,18.862-12.376,32.646-6.461,38.544c3.438,3.429,9.539,3.908,17.739,1.818c1.269-5.042,3.504-10.878,6.634-17.389
		C125.061,363.434,119.063,355.75,113.75,347.578z"/>
	<path fill="#FFFFFF" stroke="#ffffff" stroke-width="6" stroke-miterlimit="10" d="M399.175,164.454
		c9.435-18.643,12.11-32.262,6.241-38.114c-3.438-3.428-9.541-3.907-17.74-1.817c-1.222,4.851-3.341,10.439-6.287,16.654
		C387.961,148.393,393.914,156.182,399.175,164.454z"/>
	<path fill="#FFFFFF" stroke="#ffffff" stroke-width="6" stroke-miterlimit="10" d="M125.028,387.94
		c-2.066,8.206-1.569,14.307,1.869,17.734c5.956,5.938,19.887,3.05,38.927-6.782c-8.296-5.221-16.109-11.136-23.354-17.672
		C135.938,384.388,130.085,386.651,125.028,387.94z"/>
	<path fill="#FFFFFF" stroke="#ffffff" stroke-width="6" stroke-miterlimit="10" d="M90.601,292.708
		c4.466,19.831,12.407,38.344,23.149,54.87c6.407-12.574,15.855-27.404,27.814-43.668
		C121.43,300.885,104.118,297.081,90.601,292.708z"/>
	<path fill="#FFFFFF" stroke="#ffffff" stroke-width="6" stroke-miterlimit="10" d="M398.95,346.505
		c10.391-16.252,18.079-34.396,22.449-53.797c-13.246,4.285-30.143,8.022-49.763,11.018
		C383.355,319.643,392.633,334.165,398.95,346.505z"/>
	<path fill="#FFFFFF" stroke="#ffffff" stroke-width="6" stroke-miterlimit="10" d="M421.835,219.895
		c-4.252-20.013-12.029-38.721-22.66-55.44c-6.423,12.69-15.978,27.709-28.106,44.196
		C391.146,211.692,408.398,215.509,421.835,219.895z"/>
	<path fill="#FFFFFF" stroke="#ffffff" stroke-width="6" stroke-miterlimit="10" d="M112.984,164.2
		c-10.713,16.784-18.545,35.581-22.819,55.694c13.551-4.422,30.979-8.268,51.276-11.323
		C129.167,192.024,119.496,176.945,112.984,164.2z"/>
	<path fill="none" stroke="#ffffff" stroke-width="6" stroke-miterlimit="10" d="M290.888,325.048
		c30.727,25.83,58.733,45.161,79.717,55.193c3.672-3.37,7.196-6.897,10.559-10.576c-8.129-16.877-22.305-38.295-41.059-62.01
		c-9.056,0.9-18.497,1.656-28.244,2.261c5.649-5.723,10.404-12.324,14.066-19.574c4.965,5.879,9.711,11.665,14.178,17.313
		c11.121-1.105,21.67-2.424,31.532-3.93c-5.914-8.033-12.448-16.419-19.541-25.062c-7.12,0.838-14.532,1.578-22.16,2.229
		c2.541-7.311,4.014-15.116,4.244-23.237c6.296,7.127,12.288,14.15,17.916,21.009c30.2-3.556,55.502-8.734,73.245-14.977
		c0.136-2.779,0.208-5.575,0.208-8.388c0-2.177-0.055-4.341-0.136-6.499c-17.856-6.292-43.389-11.505-73.877-15.067
		c-5.459,6.666-11.252,13.482-17.332,20.397c-0.128-7.841-1.411-15.399-3.7-22.51c7.227,0.622,14.263,1.321,21.032,2.112
		c7.079-8.644,13.613-17.039,19.532-25.084c-9.873-1.497-20.431-2.804-31.553-3.901c-4.204,5.326-8.66,10.776-13.302,16.304
		c-3.34-6.748-7.63-12.938-12.7-18.399c8.948,0.574,17.643,1.271,26.002,2.095c19.24-24.376,33.718-46.368,41.873-63.572
		c-3.275-3.597-6.711-7.046-10.282-10.35c-20.902,9.971-48.883,29.344-79.602,55.277c-9.887-4.982-20.98-7.904-32.731-8.222
		c34.155-30.152,65.795-53.021,89.334-64.944C321.586,95.743,289.961,85.751,256,85.751c-33.773,0-65.238,9.878-91.669,26.898
		c23.733,12.031,55.589,34.999,89.942,65.239c-11.732,0.354-22.804,3.306-32.668,8.311c-31.001-26.104-59.263-45.622-80.376-55.685
		c-3.638,3.348-7.133,6.849-10.466,10.5c8.288,17.259,22.921,39.287,42.329,63.676c8.602-0.841,17.554-1.548,26.773-2.123
		c-5.204,5.589-9.598,11.939-12.983,18.876c-4.817-5.682-9.436-11.282-13.79-16.753c-11.154,1.09-21.746,2.391-31.652,3.882
		c5.968,8.047,12.557,16.444,19.687,25.083c6.979-0.808,14.24-1.52,21.703-2.147c-2.358,7.286-3.667,15.041-3.751,23.092
		c-6.302-7.101-12.305-14.102-17.952-20.945c-30.783,3.564-56.555,8.808-74.54,15.146c-0.082,2.157-0.136,4.321-0.136,6.499
		c0,2.813,0.072,5.608,0.208,8.388c17.978,6.325,43.714,11.559,74.446,15.118c5.661-6.914,11.681-13.99,18.009-21.172
		c0.23,8.17,1.716,16.021,4.283,23.371c-7.672-0.64-15.128-1.369-22.292-2.199c-7.083,8.651-13.621,17.054-19.541,25.104
		c9.884,1.485,20.45,2.781,31.574,3.867c4.486-5.686,9.252-11.509,14.237-17.423c3.679,7.28,8.459,13.907,14.141,19.646
		c-9.79-0.592-19.275-1.335-28.378-2.224c-18.942,24.004-33.267,45.696-41.476,62.774c3.443,3.714,7.047,7.275,10.808,10.669
		c21.131-10.247,49.302-29.887,80.153-56.063c10.016,4.896,21.242,7.688,33.109,7.826c-34.253,30.419-66.083,53.605-89.908,65.908
		c26.12,16.438,57.035,25.956,90.176,25.956c33.688,0,65.081-9.826,91.471-26.768c-23.704-12.054-55.463-34.962-89.705-65.102
		C269.644,332.811,280.874,329.982,290.888,325.048z"/>
</g>
</svg>
