<?xml version="1.0" encoding="utf-8"?>
<!-- Generator: Adobe Illustrator 16.0.0, SVG Export Plug-In . SVG Version: 6.00 Build 0)  -->
<!DOCTYPE svg PUBLIC "-//W3C//DTD SVG 1.1//EN" "http://www.w3.org/Graphics/SVG/1.1/DTD/svg11.dtd">
<svg version="1.1" id="Layer_1" xmlns="http://www.w3.org/2000/svg" xmlns:xlink="http://www.w3.org/1999/xlink" x="0px" y="0px"
	 width="128px" height="128px" viewBox="0 0 128 128" enable-background="new 0 0 128 128" xml:space="preserve">
<path fill="none" stroke="#010101" stroke-miterlimit="10" d="M131.075,30.523"/>
<path fill="none" stroke="#010101" stroke-miterlimit="10" d="M69.574,41.662"/>
<g>
	<path fill="none" stroke="#010101" stroke-width="5" stroke-miterlimit="10" d="M49.966,29.208
		c12.789,1.091,24.951,4.797,24.951,8.832c0,4.915-13.849,8.899-30.935,8.899c-17.083,0-30.934-3.984-30.934-8.899
		c0-4.061,10.375-7.682,23.292-8.75"/>
	<path fill="none" stroke="#010101" stroke-width="5" stroke-miterlimit="10" d="M55.35,106.979
		c-2.413,0.174-8.512,0.546-11.366,0.546c-22.464,0-30.935-6.28-30.935-8.499c0-0.782-1.414-4.454-1.414-14.242
		c0-17.971,1.414-46.745,1.414-46.745"/>
	<path fill="none" stroke="#010101" stroke-width="5" stroke-miterlimit="10" d="M74.917,38.041c0,0-0.041,6.533-0.077,17.625"/>
</g>
<g>
	<path fill="none" stroke="#010101" stroke-width="5" stroke-miterlimit="10" d="M92.713,55.947
		c13.224,0.798,24.505,3.712,24.505,6.961c0,3.873-13.848,7.012-30.932,7.012c-17.086,0-30.936-3.139-30.936-7.012
		c0-3.216,11.51-6.136,24.537-6.961"/>
	<path fill="none" stroke="#010101" stroke-width="5" stroke-miterlimit="10" d="M77.925,56.154"/>
	<path fill="none" stroke="#010101" stroke-width="5" stroke-miterlimit="10" d="M117.221,62.908c0,0-0.813,18.367,0.007,29.607
		c0.879,12.104-0.153,17.531-0.007,18.44c0.278,1.751-8.103,6.701-30.933,6.701c-22.466,0-30.937-4.95-30.937-6.701
		c0-0.689-0.752-8.09,0-17.336c1.118-13.749,0-30.712,0-30.712"/>
</g>
<path fill="none" stroke="#010101" stroke-width="5" stroke-miterlimit="10" d="M42.285,35.536c0,0-6.454,0-6.454-7.116
	c0-2.331,3.618-15.777,3.618-15.777s2.257,4.515,4.534,7.815c2.904,5.737,6.499,5.297,5.889,9.606
	C49.257,34.397,45.143,35.536,42.285,35.536"/>
<line fill="none" stroke="#010101" stroke-width="5" stroke-miterlimit="10" x1="42.899" y1="36.309" x2="42.899" y2="40.798"/>
<path fill="none" stroke="#010101" stroke-width="5" stroke-miterlimit="10" d="M87.212,59.726c0,0,4.521-0.702,6.431-5.548
	c1.23-3.119-5.135-9.987-6.249-18.642c-1.15,1.921-7.015,14.024-6.709,18.563C80.838,56.401,81.814,59.726,87.212,59.726"/>
<line fill="none" stroke="#010101" stroke-width="5" stroke-miterlimit="10" x1="86.139" y1="58.374" x2="86.139" y2="63.775"/>
</svg>
