<?xml version="1.0" encoding="utf-8"?>
<!-- Generator: Adobe Illustrator 16.0.0, SVG Export Plug-In . SVG Version: 6.00 Build 0)  -->
<!DOCTYPE svg PUBLIC "-//W3C//DTD SVG 1.1//EN" "http://www.w3.org/Graphics/SVG/1.1/DTD/svg11.dtd">
<svg version="1.1" id="Layer_1" xmlns="http://www.w3.org/2000/svg" xmlns:xlink="http://www.w3.org/1999/xlink" x="0px" y="0px"
	 width="128px" height="128px" viewBox="0 0 128 128" enable-background="new 0 0 128 128" xml:space="preserve">
<path fill="none" stroke="#FFFFFF" stroke-width="10" stroke-miterlimit="10" d="M64,27.334c-4.832,7.585-11.696,11.671-9.572,19.42
	c0.98,3.804,4.989,7.213,9.811,7.213c5.146,0,9.471-3.127,10.289-6.931C76.815,37.597,69.762,34.585,64,27.334z"/>
<path fill="none" stroke="#FFFFFF" stroke-width="10" stroke-miterlimit="10" d="M100.135,58.545
	c-2.602,1.278-6.936,0.778-9.408-1.054c-0.048,1.305-6.129,8.816-4.833,13.778c0.903,3.456,4.597,6.554,9.038,6.554
	c4.74,0,8.723-2.842,9.476-6.299C105.173,68.011,101.436,62.354,100.135,58.545z"/>
<path fill="none" stroke="#FFFFFF" stroke-width="10" stroke-miterlimit="10" d="M41.012,60.459
	c-4.353,6.654-4.566,7.764-8.114,7.844c-4.089,0.092-5.827-2.028-5.815-5.545c0.009-2.535,1.461-5.52,4.733-6.519
	c2.556-0.781,7.762-0.042,10.008,1.109c3.181,1.638,4.022,7.027,2.298,13.658c-1.758,6.762-19.338,7.304-14.605-1.352"/>
<path fill="none" stroke="#FFFFFF" stroke-width="10" stroke-miterlimit="10" d="M78.575,93.074
	c-0.005-3.118-7.708-17.069-7.708-17.069l-6.373,10.668l-5.713-5.981c0,0-5.343,8.505-5.366,13.167
	c-0.008,1.589,1.165,5.111,3.607,7.401c2.252,2.109,6.071,3.422,8.972,3.422c2.947,0,5.668-1.292,7.955-3.192
	C75.831,99.927,78.58,96.172,78.575,93.074z"/>
<path fill="none" stroke="#FFFFFF" stroke-width="10" stroke-miterlimit="10" d="M116.473,63.998
	c0,28.98-23.492,52.475-52.473,52.475c-28.98,0-52.473-23.494-52.473-52.475C11.527,35.02,35.02,11.527,64,11.527
	C92.98,11.527,116.473,35.021,116.473,63.998z"/>
</svg>
