<?xml version="1.0" encoding="utf-8"?>
<!-- Generator: Adobe Illustrator 16.0.0, SVG Export Plug-In . SVG Version: 6.00 Build 0)  -->
<!DOCTYPE svg PUBLIC "-//W3C//DTD SVG 1.1//EN" "http://www.w3.org/Graphics/SVG/1.1/DTD/svg11.dtd">
<svg version="1.1" id="Layer_1" xmlns="http://www.w3.org/2000/svg" xmlns:xlink="http://www.w3.org/1999/xlink" x="0px" y="0px"
	 width="512px" height="512px" viewBox="0 0 512 512" enable-background="new 0 0 512 512" xml:space="preserve">
<circle fill="none" stroke="#ffffff" stroke-width="6" stroke-miterlimit="10" cx="256" cy="256" r="242.166"/>
<path fill="none" stroke="#ffffff" stroke-width="6" stroke-miterlimit="10" d="M370,255c0-27.641,20.032-50.588,46.366-55.157
	c-16.922-49.21-55.854-88.177-105.041-105.15C307.147,121.492,283.971,142,256,142c-27.97,0-51.147-20.508-55.325-47.307
	c-49.187,16.973-88.118,55.939-105.041,105.149C121.969,204.412,142,227.359,142,255c0,27.642-20.031,50.589-46.366,55.157
	c16.942,49.267,55.942,88.267,105.208,105.209C205.412,389.032,228.359,369,256,369c27.642,0,50.589,20.031,55.157,46.366
	c49.267-16.942,88.267-55.942,105.209-105.209C390.031,305.589,370,282.643,370,255z"/>
<g>
	<g>
		<g>
			<path d="M252.774,41.827c-5.116,19.931-22.994,33.891-27.533,53.981c-4.552,20.146,14.168,36.25,33.301,34.962
				c9.104-0.612,18.836-5.138,24.18-12.724c5.298-7.519,5.856-17.196,3.632-25.908c-4.879-19.11-22.993-31.525-28.758-50.311
				c-0.943-3.073-5.77-1.762-4.821,1.329c4.774,15.559,16.939,26.922,24.782,40.823c4.262,7.555,6.121,15.804,4.226,24.357
				c-2.161,9.758-11.722,15.26-20.837,17.111c-10.644,2.161-21.603-2.554-27.702-11.403c-5.159-7.484-4.132-16.537-0.723-24.463
				c6.993-16.263,20.588-28.938,25.076-46.425C258.398,40.03,253.576,38.706,252.774,41.827z"/>
		</g>
	</g>
	<g>
		<g>
			<path d="M452.552,251.964c-2.562-7.039-1.813-13.681,0.207-20.755c0.739-2.593-2.349-3.924-4.179-2.432
				c-8.864,7.224-7.134,20.53-14.695,28.397c1.423,0.589,2.845,1.179,4.268,1.768c-0.204-8.657,3.93-16.562-0.162-24.879
				c-4.003-8.14-11.232-14.194-14.591-22.8c-1.154-2.957-5.545-1.873-4.822,1.329c2.789,12.346,8.681,27.676-2.289,37.59
				c1.423,0.589,2.845,1.178,4.268,1.768c-0.493-6.875-1.522-13.38-6.02-18.842c-3.709-4.504-9.42-6.957-15.116-5.923
				c-2.636,0.479-2.12,4.072,0,4.821c14.201,5.016,5.338,20.025,1.433,29.646c-1.952,4.811-3.825,10.01-3.387,15.283
				c0.523,6.297,4.855,12.06,9.44,16.076c11.61,10.17,29.596,9.45,41.608,0.443c5.195-3.896,8.767-9.532,9.607-16
				C459.325,268.201,456.013,260.353,452.552,251.964c-1.213-2.937-6.052-1.652-4.822,1.329c3.442,8.339,6.882,16.087,5.14,25.303
				c-1.38,7.309-8.161,12.377-14.68,14.921c-13.042,5.091-34.432-1.031-35.791-17.396c-0.397-4.778,1.925-9.813,3.677-14.129
				c1.965-4.84,4.158-9.591,5.499-14.657c2.559-9.667-1.489-16.854-10.824-20.152c0,1.607,0,3.214,0,4.821
				c10.816-1.963,14.244,12.124,14.806,19.944c0.157,2.195,2.593,3.282,4.268,1.768c12.651-11.434,6.806-28.158,3.576-42.455
				c-1.607,0.443-3.215,0.886-4.822,1.329c2.983,7.644,8.182,13.872,12.859,20.512c3.167,4.497,4.006,8.498,3.144,13.92
				c-0.637,4.002-1.523,7.84-1.428,11.917c0.05,2.126,2.717,3.381,4.268,1.768c7.597-7.903,6.102-21.393,14.695-28.397
				c-1.393-0.811-2.785-1.622-4.179-2.432c-2.24,7.852-3.047,15.607-0.207,23.414C448.823,256.298,453.656,255.001,452.552,251.964z
				"/>
		</g>
	</g>
	<g>
		<g>
			<path d="M91.25,256.5c0.009,0.128,1.91-0.567,2.848-0.625c1.977-0.121,3.422,0.803,4.01,2.688
				c2.019,6.477-5.906,10.113-10.867,10.408c-6.092,0.361-11.658-3.27-14.715-8.332c-3.224-5.337-0.83-11.607,3.182-15.726
				c4.196-4.308,10.752-5.316,16.453-5.839c5.668-0.52,11.933-0.508,17.109,2.105c3.274,1.653,7.345,2.918,9.555,6.034
				c3.247,4.578,2.257,12.565,1.278,17.692c-3.818,19.987-26.927,29.013-44.968,23.622c-11.902-3.556-21.831-13.723-25.256-25.59
				c-2.699-9.354,0.674-19.418,5.804-27.277c6.01-9.208,15.969-14.74,26.873-15.37c9.754-0.563,30.124,3.679,24.534,17.543
				c-1.207,2.992,3.631,4.28,4.821,1.329c3.841-9.526-2.211-16.986-10.805-20.711c-9.95-4.314-22.142-4.295-32.124-0.18
				c-16.442,6.778-27.241,25.949-24.486,43.476c3.29,20.93,26.153,35.574,46.378,33.151c17.229-2.063,32.471-14.051,34.588-31.932
				c0.843-7.123,0.975-16.06-4.896-21.197c-4.938-4.321-12.423-6.963-18.813-7.686c-15.074-1.706-39.116,4.654-35.364,24.503
				c2.872,15.194,29.456,22.542,35.854,6.278c2.145-5.45,0.729-11.759-5.27-13.658c-3.548-1.124-11.065,0.372-10.725,5.291
				C86.472,259.698,91.473,259.72,91.25,256.5L91.25,256.5z"/>
		</g>
	</g>
</g>
<g>
	<g>
		<path d="M292.597,435.625c-0.329-8.811-6.271-18.338-10.041-26.029c-3.533-7.207-7.254-14.334-11.129-21.363
			c-0.884-1.602-3.448-1.652-4.318,0c-6.666,12.667-13.333,25.333-20,38c1.439,0,2.878,0,4.317,0
			c-4.222-8.444-8.445-16.89-12.667-25.334c-0.874-1.748-3.381-1.498-4.317,0c-4.818,7.703-8.998,15.927-12.157,24.445
			c-1.681,4.532-3.248,9.804-2.487,14.684c1.003,6.435,4.134,12.313,8.208,17.317c8.949,10.993,26.516,14.698,39.451,9.973
			C280.109,462.695,291.994,449.466,292.597,435.625c0.141-3.225-4.86-3.212-5,0c-0.563,12.961-12.738,24.24-24.424,27.869
			c-12.7,3.944-27.934-3-34.634-13.986c-5.848-9.589-3.565-18.32,0.646-28.012c2.708-6.233,5.97-12.312,9.575-18.074
			c-1.439,0-2.878,0-4.317,0c4.222,8.444,8.445,16.89,12.667,25.334c0.829,1.657,3.474,1.604,4.317,0
			c6.667-12.667,13.333-25.333,20-38c-1.439,0-2.879,0-4.318,0c3.356,6.086,6.569,12.254,9.689,18.464
			c2.54,5.055,4.985,10.16,7.227,15.354c1.442,3.345,3.434,7.34,3.572,11.051C287.717,438.839,292.717,438.851,292.597,435.625z"/>
	</g>
</g>
</svg>
