<?xml version="1.0" encoding="utf-8"?>
<!-- Generator: Adobe Illustrator 16.0.0, SVG Export Plug-In . SVG Version: 6.00 Build 0)  -->
<!DOCTYPE svg PUBLIC "-//W3C//DTD SVG 1.1//EN" "http://www.w3.org/Graphics/SVG/1.1/DTD/svg11.dtd">
<svg version="1.1" id="Layer_1" xmlns="http://www.w3.org/2000/svg" xmlns:xlink="http://www.w3.org/1999/xlink" x="0px" y="0px"
	 width="128px" height="128px" viewBox="0 0 128 128" enable-background="new 0 0 128 128" xml:space="preserve">
<path fill="none" stroke="#FFFFFF" stroke-width="6" stroke-miterlimit="10" d="M90.747,62c0,0-12.405,11.677-15.179,13.883
	c-3.569,2.839-39.503,27.098-46.538,28.973c-10.714,2.857-18.287,0.36-18.287,0.36l65.452-59.676L90.747,62z"/>
<path fill="none" stroke="#FFFFFF" stroke-width="6" stroke-miterlimit="10" d="M114.703,17.008
	c3.466,3.552,3.395,9.24-0.157,12.704L85.795,57.756c-3.551,3.464-9.24,3.394-12.704-0.157l0,0
	c-3.464-3.553-3.393-9.24,0.159-12.706L102,16.85C105.552,13.385,111.239,13.456,114.703,17.008L114.703,17.008z"/>
</svg>
